# xmcd
#
# Track frame offsets: 
#        150
#        23016
#        41809
#        59759
#        73089
#        88094
#        109735
#        127549
#        143771
#        165816
#
# Disc length: 2434 seconds
#
# Revision: 2
# Processed by: cddbd v1.5.2PL0 Copyright (c) Steve Scherf et al.
# Submitted via: ExactAudioCopy v1.3
#
DISCID=7f09800a
DTITLE=Sally Oldfield - Playing In The Flame
DYEAR=1981
DGENRE=Folk
TTITLE0=Playing In The Flame
TTITLE1=Love Of A Lifetime
TTITLE2=River Of The Childhood
TTITLE3=Let It All Go
TTITLE4=Song Of The Lamp
TTITLE5=Rare Lightning
TTITLE6=Man Child
TTITLE7=It's A Long Time
TTITLE8=Song Of The Being
TTITLE9=Broken Mona Lisa (single a-side)
EXTD=YEAR: 1981
EXTT0=
EXTT1=
EXTT2=
EXTT3=
EXTT4=
EXTT5=
EXTT6=
EXTT7=
EXTT8=
EXTT9=
PLAYORDER=
